<svg xmlns="http://www.w3.org/2000/svg" viewBox="0 0 9.113 8.995" height="33.998" width="34.443">
    <g transform="translate(-83.463 -88.396)" id="layer1">
        <path id="circle4629" d="M83.463 88.396v7.185h5.411c.023 1 .846 1.81 1.85 1.81a1.858 1.858 0 0 0 1.852-1.852 1.857 1.857 0 0 0-1.837-1.85v-5.293zm.702.73h5.807v4.696h-5.807zm1.119.395a.806.806 0 0 0-.807.807.806.806 0 0 0 .807.806.806.806 0 0 0 .806-.806.806.806 0 0 0-.806-.807zm2.618 1.022c-.098-.002-.197.058-.274.182l-.76 1.213c-.154.247-.462.325-.684.174-.221-.15-.556-.093-.745.129l-.757.892c-.188.222-.104.403.187.403h4.333c.292 0 .413-.208.271-.462l-1.306-2.336c-.071-.127-.167-.192-.265-.195zm1.574 3.631h.003l-.003.003zm1.063.44h.37v.74h.741v.37h-.74v.741h-.37v-.74h-.742v-.37h.741z" fill="#6c9c5a" stroke-width=".265"/>
    </g>
</svg>